<svg width="50" height="50" viewBox="0 0 150 150" xmlns="http://www.w3.org/2000/svg">
  <defs>
    <radialGradient id="nebula-gradient" cx="50%" cy="50%" r="50%" fx="50%" fy="50%">
      <stop offset="0%" style="stop-color: #9b59b6; stop-opacity: 1" />
      <stop offset="100%" style="stop-color: #34495e; stop-opacity: 1" />
    </radialGradient>
  </defs>
  <circle cx="50" cy="50" r="40" fill="url(#nebula-gradient)" />
  <path d="M30 50c0-11.05 8.95-20 20-20s20 8.95 20 20-8.95 20-20 20-20-8.95-20-20zm10 0c0 5.52 4.48 10 10 10s10-4.48 10-10-4.48-10-10-10-10 4.48-10 10z" fill="#ecf0f1" />
  <path d="M50 40c-5.52 0-10 4.48-10 10s4.48 10 10 10 10-4.48 10-10-4.48-10-10-10zm0 15a5 5 0 110-10 5 5 0 010 10z" fill="#2c3e50" />
</svg>
